<svg width="32" height="32" viewBox="0 0 32 32" fill="none" xmlns="http://www.w3.org/2000/svg">
  <rect width="32" height="32" rx="6" fill="#3b82f6"/>
  
  <!-- Graduation cap -->
  <path d="M8 12L16 8L24 12L16 16L8 12Z" fill="white"/>
  <path d="M8 12V20C8 20 12 22 16 22C20 22 24 20 24 20V12L16 16L8 12Z" fill="white" fill-opacity="0.8"/>
  
  <!-- Chart bars -->
  <rect x="10" y="24" width="2" height="4" fill="white"/>
  <rect x="13" y="22" width="2" height="6" fill="white"/>
  <rect x="16" y="20" width="2" height="8" fill="white"/>
  <rect x="19" y="24" width="2" height="4" fill="white"/>
  
  <!-- Brain/AI icon -->
  <circle cx="16" cy="6" r="2" fill="#fbbf24"/>
  <path d="M14 6C14 5.44772 14.4477 5 15 5H17C17.5523 5 18 5.44772 18 6C18 6.55228 17.5523 7 17 7H15C14.4477 7 14 6.55228 14 6Z" fill="#fbbf24"/>
</svg> 